<?xml version="1.0" encoding="UTF-8"?>
<svg viewBox="0 0 960 380" class="w-full h-auto" style="min-height: 320px; font-family: sans-serif;" xmlns="http://www.w3.org/2000/svg"><defs><marker id="bw-arrow" viewBox="0 0 10 10" markerUnits="userSpaceOnUse" markerWidth="10" markerHeight="10" refX="9" refY="5" orient="auto"><polygon points="0 1, 10 5, 0 9" fill="#1a1a1a"/></marker></defs><rect x="0" y="0" width="960" height="380" fill="#ffffff"/><g opacity="1"><rect x="14" y="64" width="206" height="238" rx="8" fill="none" stroke="#555555" stroke-width="1" stroke-dasharray="6,3"/><rect x="24" y="54" width="91.19999999999999" height="18" rx="4" fill="#ffffff" stroke="#555555" stroke-width="1"/><text x="29" y="67" font-size="10" font-weight="700" font-family="sans-serif" fill="#111111">① Data Layer</text></g><g opacity="1"><rect x="236" y="64" width="208" height="212" rx="8" fill="none" stroke="#555555" stroke-width="1" stroke-dasharray="6,3"/><rect x="246" y="54" width="124.19999999999999" height="18" rx="4" fill="#ffffff" stroke="#555555" stroke-width="1"/><text x="251" y="67" font-size="10" font-weight="700" font-family="sans-serif" fill="#111111">② Arrival Process</text></g><g opacity="1"><rect x="464" y="64" width="232" height="290" rx="8" fill="none" stroke="#555555" stroke-width="1" stroke-dasharray="6,3"/><rect x="474" y="54" width="243" height="18" rx="4" fill="#ffffff" stroke="#555555" stroke-width="1"/><text x="479" y="67" font-size="10" font-weight="700" font-family="sans-serif" fill="#111111">③ Simulation Engine — ScalaTion 2.0</text></g><g opacity="1"><rect x="716" y="64" width="224" height="238" rx="8" fill="none" stroke="#555555" stroke-width="1" stroke-dasharray="6,3"/><rect x="726" y="54" width="130.8" height="18" rx="4" fill="#ffffff" stroke="#555555" stroke-width="1"/><text x="731" y="67" font-size="10" font-weight="700" font-family="sans-serif" fill="#111111">④ Validation Layer</text></g><g><path d="M 117 172 L 117 200" fill="none" stroke="#ffffff" stroke-width="5" stroke-linecap="round" opacity="1" pathLength="1" stroke-dashoffset="0" stroke-dasharray="1 1"/><path d="M 117 172 L 117 200" fill="none" stroke="#1a1a1a" stroke-width="1.5" stroke-dasharray="1 1" stroke-linecap="round" marker-end="url(#bw-arrow)" opacity="1" pathLength="1" stroke-dashoffset="0"/></g><g><path d="M 206 222 C 246 222, 210 102, 250 102" fill="none" stroke="#ffffff" stroke-width="5" stroke-linecap="round" opacity="1" pathLength="1" stroke-dashoffset="0" stroke-dasharray="1 1"/><path d="M 206 222 C 246 222, 210 102, 250 102" fill="none" stroke="#1a1a1a" stroke-width="1.5" stroke-dasharray="1 1" stroke-linecap="round" marker-end="url(#bw-arrow)" opacity="1" pathLength="1" stroke-dashoffset="0"/></g><g><path d="M 206 262 C 246 262, 210 238, 250 238" fill="none" stroke="#ffffff" stroke-width="5" stroke-linecap="round" opacity="1" pathLength="1" stroke-dashoffset="0" stroke-dasharray="1 1"/><path d="M 206 262 C 246 262, 210 238, 250 238" fill="none" stroke="#1a1a1a" stroke-width="1.5" stroke-dasharray="1 1" stroke-linecap="round" marker-end="url(#bw-arrow)" opacity="1" pathLength="1" stroke-dashoffset="0"/></g><g><path d="M 430 122 C 470 122, 438 127, 478 127" fill="none" stroke="#ffffff" stroke-width="5" stroke-linecap="round" opacity="1" pathLength="1" stroke-dashoffset="0" stroke-dasharray="1 1"/><path d="M 430 122 C 470 122, 438 127, 478 127" fill="none" stroke="#1a1a1a" stroke-width="1.5" stroke-dasharray="1 1" stroke-linecap="round" marker-end="url(#bw-arrow)" opacity="1" pathLength="1" stroke-dashoffset="0"/></g><g><path d="M 430 218 C 470 218, 438 207, 478 207" fill="none" stroke="#ffffff" stroke-width="5" stroke-linecap="round" opacity="1" pathLength="1" stroke-dashoffset="0" stroke-dasharray="1 1"/><path d="M 430 218 C 470 218, 438 207, 478 207" fill="none" stroke="#1a1a1a" stroke-width="1.5" stroke-dasharray="1 1" stroke-linecap="round" marker-end="url(#bw-arrow)" opacity="1" pathLength="1" stroke-dashoffset="0"/></g><g><path d="M 578 238 L 578 256" fill="none" stroke="#ffffff" stroke-width="5" stroke-linecap="round" opacity="1" pathLength="1" stroke-dashoffset="0" stroke-dasharray="1 1"/><path d="M 578 238 L 578 256" fill="none" stroke="#1a1a1a" stroke-width="1.5" stroke-dasharray="1 1" stroke-linecap="round" marker-end="url(#bw-arrow)" opacity="1" pathLength="1" stroke-dashoffset="0"/></g><g><path d="M 578 158 L 578 176" fill="none" stroke="#ffffff" stroke-width="5" stroke-linecap="round" opacity="1" pathLength="1" stroke-dashoffset="0" stroke-dasharray="1 1"/><path d="M 578 158 L 578 176" fill="none" stroke="#1a1a1a" stroke-width="1.5" stroke-dasharray="1 1" stroke-linecap="round" marker-end="url(#bw-arrow)" opacity="1" pathLength="1" stroke-dashoffset="0"/></g><g><path d="M 678 207 C 718 207, 690 130, 730 130" fill="none" stroke="#ffffff" stroke-width="5" stroke-linecap="round" opacity="1" pathLength="1" stroke-dashoffset="0" stroke-dasharray="1 1"/><path d="M 678 207 C 718 207, 690 130, 730 130" fill="none" stroke="#1a1a1a" stroke-width="1.5" stroke-dasharray="1 1" stroke-linecap="round" marker-end="url(#bw-arrow)" opacity="1" pathLength="1" stroke-dashoffset="0"/><text x="704" y="199" font-size="8.5" font-family="sans-serif" fill="#333333" text-anchor="middle" opacity="1">sim output</text></g><g><path d="M 827.5 172 L 827.5 200" fill="none" stroke="#ffffff" stroke-width="5" stroke-linecap="round" opacity="1" pathLength="1" stroke-dashoffset="0" stroke-dasharray="1 1"/><path d="M 827.5 172 L 827.5 200" fill="none" stroke="#1a1a1a" stroke-width="1.5" stroke-dasharray="1 1" stroke-linecap="round" marker-end="url(#bw-arrow)" opacity="1" pathLength="1" stroke-dashoffset="0"/></g><g opacity="1" style="transform: none; transform-origin: 50% 50%; transform-box: fill-box;"><rect x="28" y="88" width="178" height="84" rx="5" fill="#ffffff" stroke="#1a1a1a" stroke-width="1.2"/><line x1="38" y1="112" x2="196" y2="112" stroke="#cccccc" stroke-width="0.8"/><text x="117" y="105" text-anchor="middle" font-size="11" font-weight="600" font-family="sans-serif" fill="#111111">PeMS Loop Detectors</text><text x="38" y="122" font-size="9.5" font-family="sans-serif" fill="#444444">5 mainline + 2 on-ramp stations</text><text x="38" y="138" font-size="9.5" font-family="sans-serif" fill="#444444">15-min aggregation intervals</text><text x="38" y="154" font-size="9.5" font-family="sans-serif" fill="#444444">Flow, speed, occupancy</text></g><g opacity="1" style="transform: none; transform-origin: 50% 50%; transform-box: fill-box;"><rect x="28" y="200" width="178" height="84" rx="5" fill="#ffffff" stroke="#1a1a1a" stroke-width="1.2"/><line x1="38" y1="224" x2="196" y2="224" stroke="#cccccc" stroke-width="0.8"/><text x="117" y="217" text-anchor="middle" font-size="11" font-weight="600" font-family="sans-serif" fill="#111111">Data Parameterization</text><text x="38" y="234" font-size="9.5" font-family="sans-serif" fill="#444444">Lane-level arrival rates</text><text x="38" y="250" font-size="9.5" font-family="sans-serif" fill="#444444">Desired speeds per lane</text><text x="38" y="266" font-size="9.5" font-family="sans-serif" fill="#444444">Minimum headway</text></g><g opacity="1" style="transform: none; transform-origin: 50% 50%; transform-box: fill-box;"><rect x="250" y="88" width="180" height="68" rx="5" fill="#ffffff" stroke="#1a1a1a" stroke-width="1.2"/><line x1="260" y1="112" x2="420" y2="112" stroke="#cccccc" stroke-width="0.8"/><text x="340" y="105" text-anchor="middle" font-size="11" font-weight="600" font-family="sans-serif" fill="#111111">Shifted Erlang-2 (Erlang-2S)</text><text x="260" y="122" font-size="9.5" font-family="sans-serif" fill="#444444">k=2, shifted by τ_min</text></g><g opacity="1" style="transform: none; transform-origin: 50% 50%; transform-box: fill-box;"><rect x="250" y="184" width="180" height="68" rx="5" fill="#ffffff" stroke="#1a1a1a" stroke-width="1.2"/><line x1="260" y1="208" x2="420" y2="208" stroke="#cccccc" stroke-width="0.8"/><text x="340" y="201" text-anchor="middle" font-size="11" font-weight="600" font-family="sans-serif" fill="#111111">Poisson Process</text><text x="260" y="218" font-size="9.5" font-family="sans-serif" fill="#444444">λ = observed arrival rate</text></g><g opacity="1" style="transform: none; transform-origin: 50% 50%; transform-box: fill-box;"><rect x="478" y="96" width="200" height="62" rx="5" fill="#ffffff" stroke="#1a1a1a" stroke-width="1.2"/><line x1="488" y1="120" x2="668" y2="120" stroke="#cccccc" stroke-width="0.8"/><text x="578" y="113" text-anchor="middle" font-size="11" font-weight="600" font-family="sans-serif" fill="#111111">Vehicle Actors</text><text x="488" y="130" font-size="9.5" font-family="sans-serif" fill="#444444">Coroutine-based, process-oriented DES</text></g><g opacity="1" style="transform: none; transform-origin: 50% 50%; transform-box: fill-box;"><rect x="478" y="176" width="200" height="62" rx="5" fill="#ffffff" stroke="#1a1a1a" stroke-width="2"/><line x1="488" y1="200" x2="668" y2="200" stroke="#cccccc" stroke-width="0.8"/><text x="578" y="193" text-anchor="middle" font-size="11" font-weight="700" font-family="sans-serif" fill="#111111">Intelligent Driver Model</text><text x="488" y="210" font-size="9.5" font-family="sans-serif" fill="#444444">Continuous car-following dynamics</text></g><g opacity="1" style="transform: none; transform-origin: 50% 50%; transform-box: fill-box;"><rect x="478" y="256" width="200" height="76" rx="5" fill="#ffffff" stroke="#1a1a1a" stroke-width="1.2"/><line x1="488" y1="280" x2="668" y2="280" stroke="#cccccc" stroke-width="0.8"/><text x="578" y="273" text-anchor="middle" font-size="11" font-weight="600" font-family="sans-serif" fill="#111111">Numerical Integrators</text><text x="488" y="290" font-size="9.5" font-family="sans-serif" fill="#444444">Ballistic · Euler · Heun</text><text x="488" y="306" font-size="9.5" font-family="sans-serif" fill="#444444">Runge–Kutta family (8 variants)</text></g><g opacity="1" style="transform: none; transform-origin: 50% 50%; transform-box: fill-box;"><rect x="730" y="88" width="195" height="84" rx="5" fill="#ffffff" stroke="#1a1a1a" stroke-width="1.2"/><line x1="740" y1="112" x2="915" y2="112" stroke="#cccccc" stroke-width="0.8"/><text x="827.5" y="105" text-anchor="middle" font-size="11" font-weight="600" font-family="sans-serif" fill="#111111">Virtual Sensors</text><text x="740" y="122" font-size="9.5" font-family="sans-serif" fill="#444444">S1–S5, lanes 1–4</text><text x="740" y="138" font-size="9.5" font-family="sans-serif" fill="#444444">Flow (veh/hr/lane)</text><text x="740" y="154" font-size="9.5" font-family="sans-serif" fill="#444444">Speed (mi/hr)</text></g><g opacity="1" style="transform: none; transform-origin: 50% 50%; transform-box: fill-box;"><rect x="730" y="200" width="195" height="68" rx="5" fill="#ffffff" stroke="#1a1a1a" stroke-width="1.2"/><line x1="740" y1="224" x2="915" y2="224" stroke="#cccccc" stroke-width="0.8"/><text x="827.5" y="217" text-anchor="middle" font-size="11" font-weight="600" font-family="sans-serif" fill="#111111">Goodness-of-Fit Metrics</text><text x="740" y="234" font-size="9.5" font-family="sans-serif" fill="#444444">NRMSE, MAE, RMSE</text><text x="740" y="250" font-size="9.5" font-family="sans-serif" fill="#444444">sMAPE</text></g><text x="480" y="368" text-anchor="middle" font-size="9" font-style="italic" font-family="sans-serif" fill="#444">Figure 2. System architecture — microscopic traffic simulation study.</text></svg>